<svg xmlns="http://www.w3.org/2000/svg" width="1240" height="1754" viewBox="0 0 1240 1754" font-family="DejaVu Sans, Segoe UI, Arial, sans-serif">
<defs>
<marker id="arrOr" markerWidth="10" markerHeight="10" refX="8" refY="5" orient="auto"><path d="M0,0 L10,5 L0,10 z" fill="#B05A1E"/></marker>
<marker id="arrPg" markerWidth="10" markerHeight="10" refX="8" refY="5" orient="auto"><path d="M0,0 L10,5 L0,10 z" fill="#5C86A8"/></marker>
</defs>
<rect width="1240" height="1754" fill="#FBFCFE"/>
<text x="620.0" y="44" text-anchor="middle" font-size="24" font-weight="800" fill="#1B3A5B">Breezy — Modèle Conceptuel de Données (MCD)</text>
<text x="620.0" y="66" text-anchor="middle" font-size="13" fill="#5b6b7b">Architecture polyglotte — PostgreSQL (identité &amp; relations) · MongoDB (contenu)</text>
<line x1="80" y1="790" x2="1160" y2="790" stroke="#9aa7b4" stroke-width="1.4" stroke-dasharray="3 6"/>
<text x="620.0" y="783" text-anchor="middle" font-size="11.5" fill="#7a8794" font-style="italic">frontière inter-bases — réf. Mongo → Users.id logiques (aucune FK physique)</text>
<g>
<rect x="94" y="154" width="275" height="234" rx="9" fill="#000" opacity="0.07"/>
<rect x="90" y="150" width="275" height="234" rx="9" fill="#EAF1F8" stroke="#5C86A8" stroke-width="1.6"/>
<path d="M90,184 L90,159 Q90,150 99,150 L356,150 Q365,150 365,159 L365,184 Z" fill="#1B3A5B"/>
<text x="227.5" y="172" text-anchor="middle" font-size="15" font-weight="700" fill="#fff">PROFIL  (PG · Profiles)</text>
<line x1="90" y1="184" x2="365" y2="184" stroke="#5C86A8" stroke-width="0.5" opacity="0.4"/>
<text x="103" y="201" font-size="12.5" fill="#102A43" font-weight="600">id</text>
<rect x="333.8" y="189" width="22.2" height="16" rx="4" fill="#C99700"/>
<text x="344.9" y="201" text-anchor="middle" font-size="9.5" font-weight="700" fill="#fff">PK</text>
<rect x="91" y="209" width="273" height="25" fill="#000" opacity="0.025"/>
<line x1="90" y1="209" x2="365" y2="209" stroke="#5C86A8" stroke-width="0.5" opacity="0.4"/>
<text x="103" y="226" font-size="12.5" fill="#102A43" font-weight="600">user_id → Users</text>
<rect x="314.0" y="214" width="42.0" height="16" rx="4" fill="#5C6BC0"/>
<text x="335.0" y="226" text-anchor="middle" font-size="9.5" font-weight="700" fill="#fff">FK·UQ</text>
<line x1="90" y1="234" x2="365" y2="234" stroke="#5C86A8" stroke-width="0.5" opacity="0.4"/>
<text x="103" y="251" font-size="12.5" fill="#102A43" font-weight="400">display_name</text>
<rect x="91" y="259" width="273" height="25" fill="#000" opacity="0.025"/>
<line x1="90" y1="259" x2="365" y2="259" stroke="#5C86A8" stroke-width="0.5" opacity="0.4"/>
<text x="103" y="276" font-size="12.5" fill="#102A43" font-weight="400">bio</text>
<line x1="90" y1="284" x2="365" y2="284" stroke="#5C86A8" stroke-width="0.5" opacity="0.4"/>
<text x="103" y="301" font-size="12.5" fill="#102A43" font-weight="400">avatar_url</text>
<rect x="91" y="309" width="273" height="25" fill="#000" opacity="0.025"/>
<line x1="90" y1="309" x2="365" y2="309" stroke="#5C86A8" stroke-width="0.5" opacity="0.4"/>
<text x="103" y="326" font-size="12.5" fill="#102A43" font-weight="400">language_preference</text>
<line x1="90" y1="334" x2="365" y2="334" stroke="#5C86A8" stroke-width="0.5" opacity="0.4"/>
<text x="103" y="351" font-size="12.5" fill="#102A43" font-weight="400">theme_preference</text>
<rect x="91" y="359" width="273" height="25" fill="#000" opacity="0.025"/>
<line x1="90" y1="359" x2="365" y2="359" stroke="#5C86A8" stroke-width="0.5" opacity="0.4"/>
<text x="103" y="376" font-size="12.5" fill="#102A43" font-weight="400">last_active</text>
</g>
<g>
<rect x="384" y="154" width="275" height="134" rx="9" fill="#000" opacity="0.07"/>
<rect x="380" y="150" width="275" height="134" rx="9" fill="#EAF1F8" stroke="#5C86A8" stroke-width="1.6"/>
<path d="M380,184 L380,159 Q380,150 389,150 L646,150 Q655,150 655,159 L655,184 Z" fill="#1B3A5B"/>
<text x="517.5" y="172" text-anchor="middle" font-size="15" font-weight="700" fill="#fff">FOLLOWER  (PG · Followers)</text>
<line x1="380" y1="184" x2="655" y2="184" stroke="#5C86A8" stroke-width="0.5" opacity="0.4"/>
<text x="393" y="201" font-size="12.5" fill="#102A43" font-weight="600">id</text>
<rect x="623.8" y="189" width="22.2" height="16" rx="4" fill="#C99700"/>
<text x="634.9" y="201" text-anchor="middle" font-size="9.5" font-weight="700" fill="#fff">PK</text>
<rect x="381" y="209" width="273" height="25" fill="#000" opacity="0.025"/>
<line x1="380" y1="209" x2="655" y2="209" stroke="#5C86A8" stroke-width="0.5" opacity="0.4"/>
<text x="393" y="226" font-size="12.5" fill="#102A43" font-weight="400">follower_id → Users</text>
<rect x="623.8" y="214" width="22.2" height="16" rx="4" fill="#5C6BC0"/>
<text x="634.9" y="226" text-anchor="middle" font-size="9.5" font-weight="700" fill="#fff">FK</text>
<line x1="380" y1="234" x2="655" y2="234" stroke="#5C86A8" stroke-width="0.5" opacity="0.4"/>
<text x="393" y="251" font-size="12.5" fill="#102A43" font-weight="400">following_id → Users</text>
<rect x="623.8" y="239" width="22.2" height="16" rx="4" fill="#5C6BC0"/>
<text x="634.9" y="251" text-anchor="middle" font-size="9.5" font-weight="700" fill="#fff">FK</text>
<rect x="381" y="259" width="273" height="25" fill="#000" opacity="0.025"/>
<line x1="380" y1="259" x2="655" y2="259" stroke="#5C86A8" stroke-width="0.5" opacity="0.4"/>
<text x="393" y="276" font-size="12.5" fill="#102A43" font-weight="400">created_at</text>
</g>
<g>
<rect x="674" y="154" width="275" height="134" rx="9" fill="#000" opacity="0.07"/>
<rect x="670" y="150" width="275" height="134" rx="9" fill="#EAF1F8" stroke="#5C86A8" stroke-width="1.6"/>
<path d="M670,184 L670,159 Q670,150 679,150 L936,150 Q945,150 945,159 L945,184 Z" fill="#1B3A5B"/>
<text x="807.5" y="172" text-anchor="middle" font-size="15" font-weight="700" fill="#fff">BLOQUÉ  (PG · BlockedUsers)</text>
<line x1="670" y1="184" x2="945" y2="184" stroke="#5C86A8" stroke-width="0.5" opacity="0.4"/>
<text x="683" y="201" font-size="12.5" fill="#102A43" font-weight="600">id</text>
<rect x="913.8" y="189" width="22.2" height="16" rx="4" fill="#C99700"/>
<text x="924.9" y="201" text-anchor="middle" font-size="9.5" font-weight="700" fill="#fff">PK</text>
<rect x="671" y="209" width="273" height="25" fill="#000" opacity="0.025"/>
<line x1="670" y1="209" x2="945" y2="209" stroke="#5C86A8" stroke-width="0.5" opacity="0.4"/>
<text x="683" y="226" font-size="12.5" fill="#102A43" font-weight="400">blocker_id → Users</text>
<rect x="913.8" y="214" width="22.2" height="16" rx="4" fill="#5C6BC0"/>
<text x="924.9" y="226" text-anchor="middle" font-size="9.5" font-weight="700" fill="#fff">FK</text>
<line x1="670" y1="234" x2="945" y2="234" stroke="#5C86A8" stroke-width="0.5" opacity="0.4"/>
<text x="683" y="251" font-size="12.5" fill="#102A43" font-weight="400">blocked_id → Users</text>
<rect x="913.8" y="239" width="22.2" height="16" rx="4" fill="#5C6BC0"/>
<text x="924.9" y="251" text-anchor="middle" font-size="9.5" font-weight="700" fill="#fff">FK</text>
<rect x="671" y="259" width="273" height="25" fill="#000" opacity="0.025"/>
<line x1="670" y1="259" x2="945" y2="259" stroke="#5C86A8" stroke-width="0.5" opacity="0.4"/>
<text x="683" y="276" font-size="12.5" fill="#102A43" font-weight="400">created_at</text>
</g>
<g>
<rect x="964" y="154" width="275" height="184" rx="9" fill="#000" opacity="0.07"/>
<rect x="960" y="150" width="275" height="184" rx="9" fill="#EAF1F8" stroke="#5C86A8" stroke-width="1.6"/>
<path d="M960,184 L960,159 Q960,150 969,150 L1226,150 Q1235,150 1235,159 L1235,184 Z" fill="#1B3A5B"/>
<text x="1097.5" y="172" text-anchor="middle" font-size="15" font-weight="700" fill="#fff">BANNISSEMENT  (PG · Bans)</text>
<line x1="960" y1="184" x2="1235" y2="184" stroke="#5C86A8" stroke-width="0.5" opacity="0.4"/>
<text x="973" y="201" font-size="12.5" fill="#102A43" font-weight="600">id</text>
<rect x="1203.8" y="189" width="22.2" height="16" rx="4" fill="#C99700"/>
<text x="1214.9" y="201" text-anchor="middle" font-size="9.5" font-weight="700" fill="#fff">PK</text>
<rect x="961" y="209" width="273" height="25" fill="#000" opacity="0.025"/>
<line x1="960" y1="209" x2="1235" y2="209" stroke="#5C86A8" stroke-width="0.5" opacity="0.4"/>
<text x="973" y="226" font-size="12.5" fill="#102A43" font-weight="400">user_id → Users</text>
<rect x="1203.8" y="214" width="22.2" height="16" rx="4" fill="#5C6BC0"/>
<text x="1214.9" y="226" text-anchor="middle" font-size="9.5" font-weight="700" fill="#fff">FK</text>
<line x1="960" y1="234" x2="1235" y2="234" stroke="#5C86A8" stroke-width="0.5" opacity="0.4"/>
<text x="973" y="251" font-size="12.5" fill="#102A43" font-weight="400">reason</text>
<rect x="961" y="259" width="273" height="25" fill="#000" opacity="0.025"/>
<line x1="960" y1="259" x2="1235" y2="259" stroke="#5C86A8" stroke-width="0.5" opacity="0.4"/>
<text x="973" y="276" font-size="12.5" fill="#102A43" font-weight="400">banned_by → Users</text>
<rect x="1203.8" y="264" width="22.2" height="16" rx="4" fill="#5C6BC0"/>
<text x="1214.9" y="276" text-anchor="middle" font-size="9.5" font-weight="700" fill="#fff">FK</text>
<line x1="960" y1="284" x2="1235" y2="284" stroke="#5C86A8" stroke-width="0.5" opacity="0.4"/>
<text x="973" y="301" font-size="12.5" fill="#102A43" font-weight="400">expires_at</text>
<rect x="961" y="309" width="273" height="25" fill="#000" opacity="0.025"/>
<line x1="960" y1="309" x2="1235" y2="309" stroke="#5C86A8" stroke-width="0.5" opacity="0.4"/>
<text x="973" y="326" font-size="12.5" fill="#102A43" font-weight="400">created_at</text>
</g>
<g>
<rect x="474" y="564" width="300" height="234" rx="9" fill="#000" opacity="0.07"/>
<rect x="470" y="560" width="300" height="234" rx="9" fill="#F6E9E7" stroke="#B5564B" stroke-width="1.6"/>
<path d="M470,594 L470,569 Q470,560 479,560 L761,560 Q770,560 770,569 L770,594 Z" fill="#7C2D2D"/>
<text x="620.0" y="582" text-anchor="middle" font-size="15" font-weight="700" fill="#fff">UTILISATEUR  (PG · Users)</text>
<line x1="470" y1="594" x2="770" y2="594" stroke="#B5564B" stroke-width="0.5" opacity="0.4"/>
<text x="483" y="611" font-size="12.5" fill="#102A43" font-weight="600">id</text>
<rect x="738.8" y="599" width="22.2" height="16" rx="4" fill="#C99700"/>
<text x="749.9" y="611" text-anchor="middle" font-size="9.5" font-weight="700" fill="#fff">PK</text>
<rect x="471" y="619" width="298" height="25" fill="#000" opacity="0.025"/>
<line x1="470" y1="619" x2="770" y2="619" stroke="#B5564B" stroke-width="0.5" opacity="0.4"/>
<text x="483" y="636" font-size="12.5" fill="#102A43" font-weight="400">username</text>
<rect x="738.8" y="624" width="22.2" height="16" rx="4" fill="#2E7D32"/>
<text x="749.9" y="636" text-anchor="middle" font-size="9.5" font-weight="700" fill="#fff">UQ</text>
<line x1="470" y1="644" x2="770" y2="644" stroke="#B5564B" stroke-width="0.5" opacity="0.4"/>
<text x="483" y="661" font-size="12.5" fill="#102A43" font-weight="400">email</text>
<rect x="738.8" y="649" width="22.2" height="16" rx="4" fill="#2E7D32"/>
<text x="749.9" y="661" text-anchor="middle" font-size="9.5" font-weight="700" fill="#fff">UQ</text>
<rect x="471" y="669" width="298" height="25" fill="#000" opacity="0.025"/>
<line x1="470" y1="669" x2="770" y2="669" stroke="#B5564B" stroke-width="0.5" opacity="0.4"/>
<text x="483" y="686" font-size="12.5" fill="#102A43" font-weight="400">password_hash</text>
<line x1="470" y1="694" x2="770" y2="694" stroke="#B5564B" stroke-width="0.5" opacity="0.4"/>
<text x="483" y="711" font-size="12.5" fill="#102A43" font-weight="400">role : enum(user/mod/admin)</text>
<rect x="471" y="719" width="298" height="25" fill="#000" opacity="0.025"/>
<line x1="470" y1="719" x2="770" y2="719" stroke="#B5564B" stroke-width="0.5" opacity="0.4"/>
<text x="483" y="736" font-size="12.5" fill="#102A43" font-weight="400">is_validated</text>
<line x1="470" y1="744" x2="770" y2="744" stroke="#B5564B" stroke-width="0.5" opacity="0.4"/>
<text x="483" y="761" font-size="12.5" fill="#102A43" font-weight="400">created_at</text>
<rect x="471" y="769" width="298" height="25" fill="#000" opacity="0.025"/>
<line x1="470" y1="769" x2="770" y2="769" stroke="#B5564B" stroke-width="0.5" opacity="0.4"/>
<text x="483" y="786" font-size="12.5" fill="#102A43" font-weight="400">updated_at</text>
</g>
<g>
<rect x="94" y="924" width="275" height="234" rx="9" fill="#000" opacity="0.07"/>
<rect x="90" y="920" width="275" height="234" rx="9" fill="#E9F4EE" stroke="#4CAF82" stroke-width="1.6"/>
<path d="M90,954 L90,929 Q90,920 99,920 L356,920 Q365,920 365,929 L365,954 Z" fill="#256145"/>
<text x="227.5" y="942" text-anchor="middle" font-size="15" font-weight="700" fill="#fff">POST  (Mongo · posts)</text>
<line x1="90" y1="954" x2="365" y2="954" stroke="#4CAF82" stroke-width="0.5" opacity="0.4"/>
<text x="103" y="971" font-size="12.5" fill="#102A43" font-weight="600">_id</text>
<rect x="333.8" y="959" width="22.2" height="16" rx="4" fill="#C99700"/>
<text x="344.9" y="971" text-anchor="middle" font-size="9.5" font-weight="700" fill="#fff">PK</text>
<rect x="91" y="979" width="273" height="25" fill="#000" opacity="0.025"/>
<line x1="90" y1="979" x2="365" y2="979" stroke="#4CAF82" stroke-width="0.5" opacity="0.4"/>
<text x="103" y="996" font-size="12.5" fill="#B05A1E" font-weight="400">user_id → Users  «rédige»</text>
<line x1="90" y1="1004" x2="365" y2="1004" stroke="#4CAF82" stroke-width="0.5" opacity="0.4"/>
<text x="103" y="1021" font-size="12.5" fill="#102A43" font-weight="400">content  (≤ 280)</text>
<rect x="91" y="1029" width="273" height="25" fill="#000" opacity="0.025"/>
<line x1="90" y1="1029" x2="365" y2="1029" stroke="#4CAF82" stroke-width="0.5" opacity="0.4"/>
<text x="103" y="1046" font-size="12.5" fill="#B05A1E" font-weight="400">likes[] → Users  «aime»</text>
<line x1="90" y1="1054" x2="365" y2="1054" stroke="#4CAF82" stroke-width="0.5" opacity="0.4"/>
<text x="103" y="1071" font-size="12.5" fill="#102A43" font-weight="400">comments[] → Commentaire</text>
<rect x="91" y="1079" width="273" height="25" fill="#000" opacity="0.025"/>
<line x1="90" y1="1079" x2="365" y2="1079" stroke="#4CAF82" stroke-width="0.5" opacity="0.4"/>
<text x="103" y="1096" font-size="12.5" fill="#102A43" font-weight="400">tags[]</text>
<line x1="90" y1="1104" x2="365" y2="1104" stroke="#4CAF82" stroke-width="0.5" opacity="0.4"/>
<text x="103" y="1121" font-size="12.5" fill="#102A43" font-weight="400">media {type,url} | null</text>
<rect x="91" y="1129" width="273" height="25" fill="#000" opacity="0.025"/>
<line x1="90" y1="1129" x2="365" y2="1129" stroke="#4CAF82" stroke-width="0.5" opacity="0.4"/>
<text x="103" y="1146" font-size="12.5" fill="#102A43" font-weight="400">created_at</text>
</g>
<g>
<rect x="384" y="924" width="275" height="209" rx="9" fill="#000" opacity="0.07"/>
<rect x="380" y="920" width="275" height="209" rx="9" fill="#E9F4EE" stroke="#4CAF82" stroke-width="1.6"/>
<path d="M380,954 L380,929 Q380,920 389,920 L646,920 Q655,920 655,929 L655,954 Z" fill="#256145"/>
<text x="517.5" y="942" text-anchor="middle" font-size="15" font-weight="700" fill="#fff">NOTIFICATION  (Mongo · notifications)</text>
<line x1="380" y1="954" x2="655" y2="954" stroke="#4CAF82" stroke-width="0.5" opacity="0.4"/>
<text x="393" y="971" font-size="12.5" fill="#102A43" font-weight="600">_id</text>
<rect x="623.8" y="959" width="22.2" height="16" rx="4" fill="#C99700"/>
<text x="634.9" y="971" text-anchor="middle" font-size="9.5" font-weight="700" fill="#fff">PK</text>
<rect x="381" y="979" width="273" height="25" fill="#000" opacity="0.025"/>
<line x1="380" y1="979" x2="655" y2="979" stroke="#4CAF82" stroke-width="0.5" opacity="0.4"/>
<text x="393" y="996" font-size="12.5" fill="#B05A1E" font-weight="400">recipient_id → Users  «reçoit»</text>
<line x1="380" y1="1004" x2="655" y2="1004" stroke="#4CAF82" stroke-width="0.5" opacity="0.4"/>
<text x="393" y="1021" font-size="12.5" fill="#B05A1E" font-weight="400">sender_id → Users  «déclenche»</text>
<rect x="381" y="1029" width="273" height="25" fill="#000" opacity="0.025"/>
<line x1="380" y1="1029" x2="655" y2="1029" stroke="#4CAF82" stroke-width="0.5" opacity="0.4"/>
<text x="393" y="1046" font-size="12.5" fill="#102A43" font-weight="400">type : enum</text>
<line x1="380" y1="1054" x2="655" y2="1054" stroke="#4CAF82" stroke-width="0.5" opacity="0.4"/>
<text x="393" y="1071" font-size="12.5" fill="#B05A1E" font-weight="400">post_id → posts | null</text>
<rect x="381" y="1079" width="273" height="25" fill="#000" opacity="0.025"/>
<line x1="380" y1="1079" x2="655" y2="1079" stroke="#4CAF82" stroke-width="0.5" opacity="0.4"/>
<text x="393" y="1096" font-size="12.5" fill="#102A43" font-weight="400">is_read</text>
<line x1="380" y1="1104" x2="655" y2="1104" stroke="#4CAF82" stroke-width="0.5" opacity="0.4"/>
<text x="393" y="1121" font-size="12.5" fill="#102A43" font-weight="400">created_at</text>
</g>
<g>
<rect x="674" y="924" width="275" height="209" rx="9" fill="#000" opacity="0.07"/>
<rect x="670" y="920" width="275" height="209" rx="9" fill="#E9F4EE" stroke="#4CAF82" stroke-width="1.6"/>
<path d="M670,954 L670,929 Q670,920 679,920 L936,920 Q945,920 945,929 L945,954 Z" fill="#256145"/>
<text x="807.5" y="942" text-anchor="middle" font-size="15" font-weight="700" fill="#fff">MESSAGE  (Mongo · directmessages)</text>
<line x1="670" y1="954" x2="945" y2="954" stroke="#4CAF82" stroke-width="0.5" opacity="0.4"/>
<text x="683" y="971" font-size="12.5" fill="#102A43" font-weight="600">_id</text>
<rect x="913.8" y="959" width="22.2" height="16" rx="4" fill="#C99700"/>
<text x="924.9" y="971" text-anchor="middle" font-size="9.5" font-weight="700" fill="#fff">PK</text>
<rect x="671" y="979" width="273" height="25" fill="#000" opacity="0.025"/>
<line x1="670" y1="979" x2="945" y2="979" stroke="#4CAF82" stroke-width="0.5" opacity="0.4"/>
<text x="683" y="996" font-size="12.5" fill="#102A43" font-weight="400">conversation_id</text>
<line x1="670" y1="1004" x2="945" y2="1004" stroke="#4CAF82" stroke-width="0.5" opacity="0.4"/>
<text x="683" y="1021" font-size="12.5" fill="#B05A1E" font-weight="400">sender_id → Users  «envoie»</text>
<rect x="671" y="1029" width="273" height="25" fill="#000" opacity="0.025"/>
<line x1="670" y1="1029" x2="945" y2="1029" stroke="#4CAF82" stroke-width="0.5" opacity="0.4"/>
<text x="683" y="1046" font-size="12.5" fill="#B05A1E" font-weight="400">recipient_id → Users  «reçoit»</text>
<line x1="670" y1="1054" x2="945" y2="1054" stroke="#4CAF82" stroke-width="0.5" opacity="0.4"/>
<text x="683" y="1071" font-size="12.5" fill="#102A43" font-weight="400">message_text  (≤ 1000)</text>
<rect x="671" y="1079" width="273" height="25" fill="#000" opacity="0.025"/>
<line x1="670" y1="1079" x2="945" y2="1079" stroke="#4CAF82" stroke-width="0.5" opacity="0.4"/>
<text x="683" y="1096" font-size="12.5" fill="#102A43" font-weight="400">is_read</text>
<line x1="670" y1="1104" x2="945" y2="1104" stroke="#4CAF82" stroke-width="0.5" opacity="0.4"/>
<text x="683" y="1121" font-size="12.5" fill="#102A43" font-weight="400">created_at</text>
</g>
<g>
<rect x="964" y="924" width="275" height="209" rx="9" fill="#000" opacity="0.07"/>
<rect x="960" y="920" width="275" height="209" rx="9" fill="#E9F4EE" stroke="#4CAF82" stroke-width="1.6"/>
<path d="M960,954 L960,929 Q960,920 969,920 L1226,920 Q1235,920 1235,929 L1235,954 Z" fill="#256145"/>
<text x="1097.5" y="942" text-anchor="middle" font-size="15" font-weight="700" fill="#fff">SIGNALEMENT  (Mongo · reports)</text>
<line x1="960" y1="954" x2="1235" y2="954" stroke="#4CAF82" stroke-width="0.5" opacity="0.4"/>
<text x="973" y="971" font-size="12.5" fill="#102A43" font-weight="600">_id</text>
<rect x="1203.8" y="959" width="22.2" height="16" rx="4" fill="#C99700"/>
<text x="1214.9" y="971" text-anchor="middle" font-size="9.5" font-weight="700" fill="#fff">PK</text>
<rect x="961" y="979" width="273" height="25" fill="#000" opacity="0.025"/>
<line x1="960" y1="979" x2="1235" y2="979" stroke="#4CAF82" stroke-width="0.5" opacity="0.4"/>
<text x="973" y="996" font-size="12.5" fill="#B05A1E" font-weight="400">reported_by → Users  «émet»</text>
<line x1="960" y1="1004" x2="1235" y2="1004" stroke="#4CAF82" stroke-width="0.5" opacity="0.4"/>
<text x="973" y="1021" font-size="12.5" fill="#102A43" font-weight="400">target_type : enum</text>
<rect x="961" y="1029" width="273" height="25" fill="#000" opacity="0.025"/>
<line x1="960" y1="1029" x2="1235" y2="1029" stroke="#4CAF82" stroke-width="0.5" opacity="0.4"/>
<text x="973" y="1046" font-size="12.5" fill="#102A43" font-weight="400">target_id  (post/comment/user)</text>
<line x1="960" y1="1054" x2="1235" y2="1054" stroke="#4CAF82" stroke-width="0.5" opacity="0.4"/>
<text x="973" y="1071" font-size="12.5" fill="#102A43" font-weight="400">reason</text>
<rect x="961" y="1079" width="273" height="25" fill="#000" opacity="0.025"/>
<line x1="960" y1="1079" x2="1235" y2="1079" stroke="#4CAF82" stroke-width="0.5" opacity="0.4"/>
<text x="973" y="1096" font-size="12.5" fill="#102A43" font-weight="400">status : enum</text>
<line x1="960" y1="1104" x2="1235" y2="1104" stroke="#4CAF82" stroke-width="0.5" opacity="0.4"/>
<text x="973" y="1121" font-size="12.5" fill="#102A43" font-weight="400">created_at</text>
</g>
<g>
<rect x="94" y="1244" width="275" height="134" rx="9" fill="#000" opacity="0.07"/>
<rect x="90" y="1240" width="275" height="134" rx="9" fill="#E9F4EE" stroke="#4CAF82" stroke-width="1.6"/>
<path d="M90,1274 L90,1249 Q90,1240 99,1240 L356,1240 Q365,1240 365,1249 L365,1274 Z" fill="#256145"/>
<text x="227.5" y="1262" text-anchor="middle" font-size="15" font-weight="700" fill="#fff">COMMENTAIRE  (imbriqué)</text>
<line x1="90" y1="1274" x2="365" y2="1274" stroke="#4CAF82" stroke-width="0.5" opacity="0.4"/>
<text x="103" y="1291" font-size="12.5" fill="#102A43" font-weight="400">comment_id</text>
<rect x="91" y="1299" width="273" height="25" fill="#000" opacity="0.025"/>
<line x1="90" y1="1299" x2="365" y2="1299" stroke="#4CAF82" stroke-width="0.5" opacity="0.4"/>
<text x="103" y="1316" font-size="12.5" fill="#B05A1E" font-weight="400">user_id → Users  «écrit»</text>
<line x1="90" y1="1324" x2="365" y2="1324" stroke="#4CAF82" stroke-width="0.5" opacity="0.4"/>
<text x="103" y="1341" font-size="12.5" fill="#102A43" font-weight="400">content  (≤ 280)</text>
<rect x="91" y="1349" width="273" height="25" fill="#000" opacity="0.025"/>
<line x1="90" y1="1349" x2="365" y2="1349" stroke="#4CAF82" stroke-width="0.5" opacity="0.4"/>
<text x="103" y="1366" font-size="12.5" fill="#102A43" font-weight="400">created_at</text>
</g>
<g>
<rect x="94" y="1464" width="275" height="134" rx="9" fill="#000" opacity="0.07"/>
<rect x="90" y="1460" width="275" height="134" rx="9" fill="#E9F4EE" stroke="#4CAF82" stroke-width="1.6"/>
<path d="M90,1494 L90,1469 Q90,1460 99,1460 L356,1460 Q365,1460 365,1469 L365,1494 Z" fill="#256145"/>
<text x="227.5" y="1482" text-anchor="middle" font-size="15" font-weight="700" fill="#fff">RÉPONSE  (imbriqué)</text>
<line x1="90" y1="1494" x2="365" y2="1494" stroke="#4CAF82" stroke-width="0.5" opacity="0.4"/>
<text x="103" y="1511" font-size="12.5" fill="#102A43" font-weight="400">reply_id</text>
<rect x="91" y="1519" width="273" height="25" fill="#000" opacity="0.025"/>
<line x1="90" y1="1519" x2="365" y2="1519" stroke="#4CAF82" stroke-width="0.5" opacity="0.4"/>
<text x="103" y="1536" font-size="12.5" fill="#B05A1E" font-weight="400">user_id → Users  «écrit»</text>
<line x1="90" y1="1544" x2="365" y2="1544" stroke="#4CAF82" stroke-width="0.5" opacity="0.4"/>
<text x="103" y="1561" font-size="12.5" fill="#102A43" font-weight="400">content</text>
<rect x="91" y="1569" width="273" height="25" fill="#000" opacity="0.025"/>
<line x1="90" y1="1569" x2="365" y2="1569" stroke="#4CAF82" stroke-width="0.5" opacity="0.4"/>
<text x="103" y="1586" font-size="12.5" fill="#102A43" font-weight="400">created_at</text>
</g>
<line x1="227.5" y1="384.0" x2="515.0" y2="560.0" stroke="#5C86A8" stroke-width="1.8" marker-end="url(#arrPg)" fill="none"/>
<rect x="242.7" y="390.3" width="27.6" height="17.5" rx="3" fill="#fff" opacity="0.94"/>
<text x="256.5" y="399.8" text-anchor="middle" font-size="10.5" fill="#1B3A5B" font-style="italic">0,1</text>
<rect x="472.2" y="530.7" width="27.6" height="17.5" rx="3" fill="#fff" opacity="0.94"/>
<text x="486.0" y="540.2" text-anchor="middle" font-size="10.5" fill="#1B3A5B" font-style="italic">1,1</text>
<rect x="350.4" y="465.5" width="53.1" height="18" rx="3" fill="#fff" opacity="0.94"/>
<text x="377.0" y="475.5" text-anchor="middle" font-size="11" fill="#1B3A5B" font-style="italic">possède</text>
<line x1="517.5" y1="284.0" x2="584.0" y2="560.0" stroke="#5C86A8" stroke-width="1.8" marker-end="url(#arrPg)" fill="none"/>
<rect x="511.6" y="305.6" width="27.6" height="17.5" rx="3" fill="#fff" opacity="0.94"/>
<text x="525.5" y="315.1" text-anchor="middle" font-size="10.5" fill="#1B3A5B" font-style="italic">0,n</text>
<rect x="562.2" y="515.4" width="27.6" height="17.5" rx="3" fill="#fff" opacity="0.94"/>
<text x="576.0" y="524.9" text-anchor="middle" font-size="10.5" fill="#1B3A5B" font-style="italic">0,n</text>
<rect x="497.8" y="417.5" width="108.6" height="18" rx="3" fill="#fff" opacity="0.94"/>
<text x="552.1" y="427.5" text-anchor="middle" font-size="11" fill="#1B3A5B" font-style="italic">suit / est suivi</text>
<line x1="807.5" y1="284.0" x2="725.0" y2="560.0" stroke="#5C86A8" stroke-width="1.8" marker-end="url(#arrPg)" fill="none"/>
<rect x="783.9" y="305.1" width="27.6" height="17.5" rx="3" fill="#fff" opacity="0.94"/>
<text x="797.8" y="314.6" text-anchor="middle" font-size="10.5" fill="#1B3A5B" font-style="italic">0,n</text>
<rect x="720.9" y="515.9" width="27.6" height="17.5" rx="3" fill="#fff" opacity="0.94"/>
<text x="734.7" y="525.4" text-anchor="middle" font-size="10.5" fill="#1B3A5B" font-style="italic">0,n</text>
<rect x="701.1" y="417.5" width="127.0" height="18" rx="3" fill="#fff" opacity="0.94"/>
<text x="764.6" y="427.5" text-anchor="middle" font-size="11" fill="#1B3A5B" font-style="italic">bloque / est bloqué</text>
<line x1="1097.5" y1="334.0" x2="656.0" y2="560.0" stroke="#5C86A8" stroke-width="1.8" marker-end="url(#arrPg)" fill="none"/>
<rect x="1053.4" y="338.0" width="27.6" height="17.5" rx="3" fill="#fff" opacity="0.94"/>
<text x="1067.2" y="347.5" text-anchor="middle" font-size="10.5" fill="#1B3A5B" font-style="italic">0,n</text>
<rect x="672.4" y="533.0" width="27.6" height="17.5" rx="3" fill="#fff" opacity="0.94"/>
<text x="686.3" y="542.5" text-anchor="middle" font-size="10.5" fill="#1B3A5B" font-style="italic">0,n</text>
<rect x="813.6" y="441.5" width="108.6" height="18" rx="3" fill="#fff" opacity="0.94"/>
<text x="867.9" y="451.5" text-anchor="middle" font-size="11" fill="#1B3A5B" font-style="italic">subit / prononce</text>
<line x1="227.5" y1="920.0" x2="515.0" y2="794.0" stroke="#B05A1E" stroke-width="1.6" stroke-dasharray="7 5" marker-end="url(#arrOr)" fill="none"/>
<rect x="244.8" y="894.9" width="27.6" height="17.5" rx="3" fill="#fff" opacity="0.94"/>
<text x="258.6" y="904.4" text-anchor="middle" font-size="10.5" fill="#B05A1E" font-style="italic">0,n</text>
<rect x="470.0" y="796.1" width="27.6" height="17.5" rx="3" fill="#fff" opacity="0.94"/>
<text x="483.9" y="805.6" text-anchor="middle" font-size="10.5" fill="#B05A1E" font-style="italic">1,1</text>
<rect x="326.2" y="847.0" width="90.1" height="18" rx="3" fill="#fff" opacity="0.94"/>
<text x="371.2" y="857.0" text-anchor="middle" font-size="11" fill="#B05A1E" font-style="italic">rédige / aime</text>
<line x1="807.5" y1="920.0" x2="656.0" y2="794.0" stroke="#B05A1E" stroke-width="1.6" stroke-dasharray="7 5" marker-end="url(#arrOr)" fill="none"/>
<rect x="767.5" y="886.8" width="27.6" height="17.5" rx="3" fill="#fff" opacity="0.94"/>
<text x="781.4" y="896.3" text-anchor="middle" font-size="10.5" fill="#B05A1E" font-style="italic">0,n</text>
<rect x="668.3" y="804.2" width="27.6" height="17.5" rx="3" fill="#fff" opacity="0.94"/>
<text x="682.1" y="813.7" text-anchor="middle" font-size="10.5" fill="#B05A1E" font-style="italic">1,1</text>
<rect x="680.5" y="847.0" width="102.4" height="18" rx="3" fill="#fff" opacity="0.94"/>
<text x="731.8" y="857.0" text-anchor="middle" font-size="11" fill="#B05A1E" font-style="italic">envoie / reçoit</text>
<line x1="517.5" y1="920.0" x2="584.0" y2="794.0" stroke="#B05A1E" stroke-width="1.6" stroke-dasharray="7 5" marker-end="url(#arrOr)" fill="none"/>
<rect x="519.5" y="878.4" width="27.6" height="17.5" rx="3" fill="#fff" opacity="0.94"/>
<text x="533.4" y="887.9" text-anchor="middle" font-size="10.5" fill="#B05A1E" font-style="italic">0,n</text>
<rect x="554.3" y="812.6" width="27.6" height="17.5" rx="3" fill="#fff" opacity="0.94"/>
<text x="568.1" y="822.1" text-anchor="middle" font-size="10.5" fill="#B05A1E" font-style="italic">1,1</text>
<rect x="490.3" y="847.0" width="120.9" height="18" rx="3" fill="#fff" opacity="0.94"/>
<text x="550.8" y="857.0" text-anchor="middle" font-size="11" fill="#B05A1E" font-style="italic">déclenche / reçoit</text>
<line x1="1097.5" y1="920.0" x2="725.0" y2="794.0" stroke="#B05A1E" stroke-width="1.6" stroke-dasharray="7 5" marker-end="url(#arrOr)" fill="none"/>
<rect x="1051.5" y="897.6" width="27.6" height="17.5" rx="3" fill="#fff" opacity="0.94"/>
<text x="1065.3" y="907.1" text-anchor="middle" font-size="10.5" fill="#B05A1E" font-style="italic">0,n</text>
<rect x="743.4" y="793.4" width="27.6" height="17.5" rx="3" fill="#fff" opacity="0.94"/>
<text x="757.2" y="802.9" text-anchor="middle" font-size="10.5" fill="#B05A1E" font-style="italic">1,1</text>
<rect x="893.9" y="847.0" width="34.6" height="18" rx="3" fill="#fff" opacity="0.94"/>
<text x="911.2" y="857.0" text-anchor="middle" font-size="11" fill="#B05A1E" font-style="italic">émet</text>
<line x1="186.2" y1="1240.0" x2="227.5" y2="1154.0" stroke="#4CAF82" stroke-width="2.0" fill="none"/>
<polygon points="222.74277038173696,1156.418102961712 230.24277038173696,1163.918102961712 222.74277038173696,1171.418102961712 215.24277038173696,1163.918102961712" fill="#256145" stroke="#256145"/>
<rect x="187.1" y="1197.8" width="27.6" height="17.5" rx="3" fill="#fff" opacity="0.94"/>
<text x="201.0" y="1207.3" text-anchor="middle" font-size="10.5" fill="#256145" font-style="italic">1,n</text>
<rect x="189.9" y="1193.1" width="59.3" height="18" rx="3" fill="#fff" opacity="0.94"/>
<text x="219.5" y="1203.1" text-anchor="middle" font-size="11" fill="#256145" font-style="italic">contient</text>
<line x1="227.5" y1="1460.0" x2="227.5" y2="1374.0" stroke="#4CAF82" stroke-width="2.0" fill="none"/>
<polygon points="227.5,1377.5 235.0,1385.0 227.5,1392.5 220.0,1385.0" fill="#256145" stroke="#256145"/>
<rect x="213.7" y="1414.5" width="27.6" height="17.5" rx="3" fill="#fff" opacity="0.94"/>
<text x="227.5" y="1424.0" text-anchor="middle" font-size="10.5" fill="#256145" font-style="italic">1,n</text>
<rect x="211.9" y="1407.0" width="59.3" height="18" rx="3" fill="#fff" opacity="0.94"/>
<text x="241.5" y="1417.0" text-anchor="middle" font-size="11" fill="#256145" font-style="italic">contient</text>
<line x1="380.0" y1="1045.4" x2="365.0" y2="1060.4" stroke="#B05A1E" stroke-width="1.6" stroke-dasharray="7 5" marker-end="url(#arrOr)" fill="none"/>
<rect x="342.1" y="1057.9" width="27.6" height="17.5" rx="3" fill="#fff" opacity="0.94"/>
<text x="356.0" y="1067.4" text-anchor="middle" font-size="10.5" fill="#B05A1E" font-style="italic">0,1</text>
<rect x="347.9" y="1043.9" width="49.2" height="17" rx="3" fill="#fff" opacity="0.94"/>
<text x="372.5" y="1052.9" text-anchor="middle" font-size="10" fill="#B05A1E" font-style="italic">post_id</text>
<rect x="80" y="1626" width="1080" height="58" rx="9" fill="#fff" stroke="#d5dde4"/>
<rect x="100" y="1641" width="24" height="15" rx="3" fill="#F6E9E7"/>
<text x="132" y="1654" font-size="12" fill="#102A43">Entité racine</text>
<rect x="250" y="1641" width="24" height="15" rx="3" fill="#EAF1F8"/>
<text x="282" y="1654" font-size="12" fill="#102A43">PostgreSQL (relationnel)</text>
<rect x="460" y="1641" width="24" height="15" rx="3" fill="#E9F4EE"/>
<text x="492" y="1654" font-size="12" fill="#102A43">MongoDB (document)</text>
<line x1="670" y1="1650" x2="710" y2="1650" stroke="#5C86A8" stroke-width="2.2" marker-end="url(#arrPg)"/>
<text x="720" y="1654" font-size="12" fill="#102A43">clé étrangère (FK)</text>
<line x1="910" y1="1650" x2="950" y2="1650" stroke="#B05A1E" stroke-width="2" stroke-dasharray="7 5" marker-end="url(#arrOr)"/>
<text x="960" y="1654" font-size="12" fill="#102A43">réf. logique inter-bases</text>
<polygon points="1177.5,1650 1185,1642.5 1192.5,1650 1185,1657.5" fill="#256145"/>
<text x="1205" y="1654" font-size="12" fill="#102A43">composition (sous-doc.)</text>
</svg>